<svg version="1.1" id="Layer_1" xmlns="http://www.w3.org/2000/svg" xmlns:xlink="http://www.w3.org/1999/xlink" x="0px" y="0px"
	 width="100%" viewBox="0 0 225 225" enable-background="new 0 0 225 225" xml:space="preserve">
<path fill="#26A162" opacity="1.000000" stroke="none" 
	d="
M226.000000,101.000000 
	C226.000000,109.020897 226.000000,117.041801 225.640625,125.707314 
	C219.203308,174.961502 184.600571,212.998459 136.876236,223.513779 
	C132.926636,224.384033 128.959167,225.173172 125.000000,226.000000 
	C117.312424,226.000000 109.624847,226.000000 101.288300,225.638153 
	C90.693626,222.596771 80.747932,219.917236 70.565750,217.029968 
	C69.735519,216.642593 69.141777,216.462921 68.357643,216.259338 
	C68.167252,216.235443 67.859665,216.005936 67.656044,215.836884 
	C66.959457,215.511246 66.466499,215.354660 65.898834,215.221649 
	C65.824142,215.245224 65.753868,215.105225 65.599625,214.982330 
	C65.206917,214.726120 64.951538,214.671204 64.563980,214.687653 
	C64.448723,214.680618 64.354942,214.469589 64.444908,213.976700 
	C64.650803,205.602188 64.575554,197.709503 65.031044,189.847549 
	C65.131828,188.107941 67.108971,186.477036 68.598160,184.844421 
	C78.338913,187.720383 87.583191,191.013657 97.663010,190.192947 
	C105.375961,189.564941 113.028465,190.783356 120.892387,189.103333 
	C147.113602,183.501465 161.959991,166.403000 162.722610,139.560989 
	C163.400742,115.693214 149.658310,97.868767 126.072433,94.082008 
	C116.392998,92.527954 106.229607,93.570160 96.318619,94.070457 
	C92.014076,94.287750 90.511841,93.394432 90.979706,89.057686 
	C92.117493,78.511330 93.051102,67.942947 94.113785,56.896576 
	C113.419243,56.896576 132.478043,56.896576 151.809814,56.896576 
	C151.809814,49.265537 151.809814,42.147358 151.857239,34.560856 
	C151.946503,25.464941 151.988312,16.837349 152.385559,8.230719 
	C188.842270,22.543665 212.124619,48.361523 222.388168,85.831505 
	C223.760483,90.841545 224.804138,95.941620 226.000000,101.000000 
z"/>
<path fill="#DC524A" opacity="1.000000" stroke="none" 
	d="
M152.030121,8.209757 
	C151.988312,16.837349 151.946503,25.464941 151.401123,34.562580 
	C124.806129,35.032627 98.714684,35.032627 72.701843,35.032627 
	C72.393204,36.036488 72.160576,36.488235 72.124161,36.955280 
	C70.299980,60.348572 68.486435,83.742699 66.705948,107.139336 
	C66.634834,108.073875 66.569550,109.624329 67.051270,109.889618 
	C71.540070,112.361671 75.046608,116.978592 81.242401,115.721687 
	C91.697784,113.600670 102.229919,112.048752 112.947586,113.919128 
	C121.591896,115.427673 129.423889,118.306549 133.995636,126.495682 
	C144.135483,144.658615 133.129089,166.394653 112.578186,169.077057 
	C97.125954,171.093933 82.471786,168.261597 68.289116,162.221146 
	C66.715057,161.550751 65.116798,160.937164 63.382889,160.238007 
	C63.382889,167.946640 63.382889,175.093033 63.337944,182.689056 
	C63.224823,193.342010 63.156651,203.545334 62.663940,213.643036 
	C31.367777,197.099899 11.829310,171.910278 3.759232,137.850372 
	C2.898937,134.219498 1.922538,130.616135 1.000001,127.000000 
	C1.000000,117.979103 1.000000,108.958214 1.352164,99.300240 
	C2.047709,97.213326 2.459573,95.775879 2.724537,94.311852 
	C11.023330,48.457729 44.678707,13.470498 90.135902,3.430083 
	C93.441574,2.699939 96.712776,1.813679 100.000000,1.000000 
	C108.354233,1.000000 116.708466,1.000000 125.714325,1.351507 
	C134.920670,3.871928 143.475403,6.040842 152.030121,8.209757 
z"/>
<path fill="#FEFEFE" opacity="1.000000" stroke="none" 
	d="
M152.385559,8.230719 
	C143.475403,6.040842 134.920670,3.871928 126.182976,1.351507 
	C159.260269,1.000000 192.520523,1.000000 226.000000,1.000000 
	C226.000000,34.020573 226.000000,67.041626 226.000000,100.531342 
	C224.804138,95.941620 223.760483,90.841545 222.388168,85.831505 
	C212.124619,48.361523 188.842270,22.543665 152.385559,8.230719 
z"/>
<path fill="#FEFEFE" opacity="1.000000" stroke="none" 
	d="
M1.000001,127.468658 
	C1.922538,130.616135 2.898937,134.219498 3.759232,137.850372 
	C11.829310,171.910278 31.367777,197.099899 62.768028,213.744690 
	C63.649418,214.124481 64.002182,214.297028 64.354942,214.469589 
	C64.354942,214.469589 64.448723,214.680618 64.706528,214.833542 
	C64.964325,214.986465 65.346992,215.126373 65.346992,215.126373 
	C65.346992,215.126373 65.753868,215.105225 65.753868,215.105225 
	C65.753868,215.105225 65.824142,215.245224 66.063011,215.436768 
	C66.821144,215.754196 67.340401,215.880066 67.859665,216.005936 
	C67.859665,216.005936 68.167252,216.235443 68.564690,216.501160 
	C69.575493,216.923828 70.188866,217.080780 70.802231,217.237701 
	C80.747932,219.917236 90.693626,222.596771 100.819656,225.638153 
	C67.740105,226.000000 34.480202,226.000000 1.000000,226.000000 
	C1.000000,193.312775 1.000000,160.625046 1.000001,127.468658 
z"/>
<path fill="#FEFEFE" opacity="1.000000" stroke="none" 
	d="
M125.468658,226.000000 
	C128.959167,225.173172 132.926636,224.384033 136.876236,223.513779 
	C184.600571,212.998459 219.203308,174.961502 225.640625,126.175964 
	C226.000000,159.260635 226.000000,192.521255 226.000000,226.000000 
	C192.646088,226.000000 159.291702,226.000000 125.468658,226.000000 
z"/>
<path fill="#FFFEFE" opacity="1.000000" stroke="none" 
	d="
M99.531342,1.000000 
	C96.712776,1.813679 93.441574,2.699939 90.135902,3.430083 
	C44.678707,13.470498 11.023330,48.457729 2.724537,94.311852 
	C2.459573,95.775879 2.047709,97.213326 1.352164,98.831581 
	C1.000000,66.406029 1.000000,33.812057 1.000000,1.000000 
	C33.687237,1.000000 66.374962,1.000000 99.531342,1.000000 
z"/>
<path fill="#FEFDFD" opacity="1.000000" stroke="none" 
	d="
M63.382889,182.239426 
	C63.382889,175.093033 63.382889,167.946640 63.382889,160.238007 
	C65.116798,160.937164 66.715057,161.550751 68.289116,162.221146 
	C82.471786,168.261597 97.125954,171.093933 112.578186,169.077057 
	C133.129089,166.394653 144.135483,144.658615 133.995636,126.495682 
	C129.423889,118.306549 121.591896,115.427673 112.947586,113.919128 
	C102.229919,112.048752 91.697784,113.600670 81.242401,115.721687 
	C75.046608,116.978592 71.540070,112.361671 67.051270,109.889618 
	C66.569550,109.624329 66.634834,108.073875 66.705948,107.139336 
	C68.486435,83.742699 70.299980,60.348572 72.124161,36.955280 
	C72.160576,36.488235 72.393204,36.036488 72.701843,35.032627 
	C98.714684,35.032627 124.806129,35.032627 151.353699,35.030903 
	C151.809814,42.147358 151.809814,49.265537 151.809814,56.896576 
	C132.478043,56.896576 113.419243,56.896576 94.113785,56.896576 
	C93.051102,67.942947 92.117493,78.511330 90.979706,89.057686 
	C90.511841,93.394432 92.014076,94.287750 96.318619,94.070457 
	C106.229607,93.570160 116.392998,92.527954 126.072433,94.082008 
	C149.658310,97.868767 163.400742,115.693214 162.722610,139.560989 
	C161.959991,166.403000 147.113602,183.501465 120.892387,189.103333 
	C113.028465,190.783356 105.375961,189.564941 97.663010,190.192947 
	C87.583191,191.013657 78.338913,187.720383 68.399750,184.607376 
	C66.344498,183.627777 64.863693,182.933609 63.382889,182.239426 
z"/>
<path fill="#4A9962" opacity="1.000000" stroke="none" 
	d="
M63.337944,182.689056 
	C64.863693,182.933609 66.344498,183.627777 68.023712,184.559021 
	C67.108971,186.477036 65.131828,188.107941 65.031044,189.847549 
	C64.575554,197.709503 64.650803,205.602188 64.444908,213.976700 
	C64.002182,214.297028 63.649418,214.124481 63.192566,213.850281 
	C63.156651,203.545334 63.224823,193.342010 63.337944,182.689056 
z"/>
<path fill="#4A9962" opacity="1.000000" stroke="none" 
	d="
M67.656044,215.836884 
	C67.340401,215.880066 66.821144,215.754196 66.137711,215.413193 
	C66.466499,215.354660 66.959457,215.511246 67.656044,215.836884 
z"/>
<path fill="#4A9962" opacity="1.000000" stroke="none" 
	d="
M70.565750,217.029984 
	C70.188866,217.080780 69.575493,216.923828 68.755081,216.525070 
	C69.141777,216.462921 69.735519,216.642593 70.565750,217.029984 
z"/>
<path fill="#4A9962" opacity="1.000000" stroke="none" 
	d="
M65.599625,214.982330 
	C65.753868,215.105225 65.346992,215.126373 65.346992,215.126373 
	C65.346992,215.126373 64.964325,214.986465 64.821777,214.840576 
	C64.951538,214.671204 65.206917,214.726120 65.599625,214.982330 
z"/>
</svg>